<svg xmlns="http://www.w3.org/2000/svg" viewBox="0 0 64 64">
  <defs>
    <linearGradient id="bg" x1="0" y1="0" x2="1" y2="1">
      <stop offset="0" stop-color="#B0503F"/>
      <stop offset=".55" stop-color="#9E3D33"/>
      <stop offset="1" stop-color="#8A332B"/>
    </linearGradient>
  </defs>
  <!-- 印底 -->
  <rect x="2" y="2" width="60" height="60" rx="13" fill="url(#bg)"/>
  <!-- 印框 -->
  <rect x="8" y="8" width="48" height="48" rx="8" fill="none" stroke="#F9F4E7" stroke-width="2.5"/>
  <!-- 书身 -->
  <rect x="19" y="15" width="26" height="34" rx="3" fill="#F9F4E7"/>
  <!-- 装订边 -->
  <rect x="19" y="15" width="7" height="34" rx="3" fill="#9E3D33"/>
  <rect x="23" y="15" width="3" height="34" fill="#9E3D33"/>
  <!-- 订线眼 -->
  <rect x="21.5" y="21" width="2" height="3.5" rx="1" fill="#F9F4E7"/>
  <rect x="21.5" y="27" width="2" height="3.5" rx="1" fill="#F9F4E7"/>
  <rect x="21.5" y="33" width="2" height="3.5" rx="1" fill="#F9F4E7"/>
  <rect x="21.5" y="39" width="2" height="3.5" rx="1" fill="#F9F4E7"/>
  <!-- 书叶行线 -->
  <rect x="30" y="22" width="11" height="2.6" rx="1.3" fill="#9E3D33"/>
  <rect x="30" y="29" width="11" height="2.6" rx="1.3" fill="#9E3D33"/>
  <rect x="30" y="36" width="11" height="2.6" rx="1.3" fill="#9E3D33"/>
</svg>
